<?xml version="1.0" encoding="utf-8" standalone="no"?>
<!DOCTYPE svg PUBLIC "-//W3C//DTD SVG 1.1//EN"
  "http://www.w3.org/Graphics/SVG/1.1/DTD/svg11.dtd">
<!-- Created with matplotlib (https://matplotlib.org/) -->
<svg height="108pt" version="1.1" viewBox="0 0 288 108" width="288pt" xmlns="http://www.w3.org/2000/svg" xmlns:xlink="http://www.w3.org/1999/xlink">
 <defs>
  <style type="text/css">
*{stroke-linecap:butt;stroke-linejoin:round;}
  </style>
 </defs>
 <g id="figure_1">
  <g id="patch_1">
   <path d="M 0 108 
L 288 108 
L 288 0 
L 0 0 
z
" style="fill:none;"/>
  </g>
  <g id="axes_1">
   <g id="patch_2">
    <path d="M 28.8 86.4 
L 273.6 86.4 
L 273.6 10.8 
L 28.8 10.8 
z
" style="fill:none;"/>
   </g>
   <g id="matplotlib.axis_1">
    <g id="xtick_1">
     <g id="line2d_1">
      <path clip-path="url(#pd013a6d7e6)" d="M 39.927273 86.4 
L 39.927273 10.8 
" style="fill:none;stroke:#b2b2b2;stroke-dasharray:2.96,1.28;stroke-dashoffset:0;stroke-opacity:0.3;stroke-width:0.8;"/>
     </g>
     <g id="line2d_2">
      <defs>
       <path d="M 0 0 
L 0 3.5 
" id="m0578c1aa6c" style="stroke:#2b2b2b;stroke-width:0.8;"/>
      </defs>
      <g>
       <use style="fill:#2b2b2b;stroke:#2b2b2b;stroke-width:0.8;" x="39.927273" xlink:href="#m0578c1aa6c" y="86.4"/>
      </g>
     </g>
     <g id="text_1">
      <!-- -0.5 -->
      <defs>
       <path d="M 4.890625 31.390625 
L 31.203125 31.390625 
L 31.203125 23.390625 
L 4.890625 23.390625 
z
" id="DejaVuSans-45"/>
       <path d="M 31.78125 66.40625 
Q 24.171875 66.40625 20.328125 58.90625 
Q 16.5 51.421875 16.5 36.375 
Q 16.5 21.390625 20.328125 13.890625 
Q 24.171875 6.390625 31.78125 6.390625 
Q 39.453125 6.390625 43.28125 13.890625 
Q 47.125 21.390625 47.125 36.375 
Q 47.125 51.421875 43.28125 58.90625 
Q 39.453125 66.40625 31.78125 66.40625 
z
M 31.78125 74.21875 
Q 44.046875 74.21875 50.515625 64.515625 
Q 56.984375 54.828125 56.984375 36.375 
Q 56.984375 17.96875 50.515625 8.265625 
Q 44.046875 -1.421875 31.78125 -1.421875 
Q 19.53125 -1.421875 13.0625 8.265625 
Q 6.59375 17.96875 6.59375 36.375 
Q 6.59375 54.828125 13.0625 64.515625 
Q 19.53125 74.21875 31.78125 74.21875 
z
" id="DejaVuSans-48"/>
       <path d="M 10.6875 12.40625 
L 21 12.40625 
L 21 0 
L 10.6875 0 
z
" id="DejaVuSans-46"/>
       <path d="M 10.796875 72.90625 
L 49.515625 72.90625 
L 49.515625 64.59375 
L 19.828125 64.59375 
L 19.828125 46.734375 
Q 21.96875 47.46875 24.109375 47.828125 
Q 26.265625 48.1875 28.421875 48.1875 
Q 40.625 48.1875 47.75 41.5 
Q 54.890625 34.8125 54.890625 23.390625 
Q 54.890625 11.625 47.5625 5.09375 
Q 40.234375 -1.421875 26.90625 -1.421875 
Q 22.3125 -1.421875 17.546875 -0.640625 
Q 12.796875 0.140625 7.71875 1.703125 
L 7.71875 11.625 
Q 12.109375 9.234375 16.796875 8.0625 
Q 21.484375 6.890625 26.703125 6.890625 
Q 35.15625 6.890625 40.078125 11.328125 
Q 45.015625 15.765625 45.015625 23.390625 
Q 45.015625 31 40.078125 35.4375 
Q 35.15625 39.890625 26.703125 39.890625 
Q 22.75 39.890625 18.8125 39.015625 
Q 14.890625 38.140625 10.796875 36.28125 
z
" id="DejaVuSans-53"/>
      </defs>
      <g style="fill:#2b2b2b;" transform="translate(18.465241 110.116562)scale(0.22 -0.22)">
       <use xlink:href="#DejaVuSans-45"/>
       <use x="36.083984" xlink:href="#DejaVuSans-48"/>
       <use x="99.707031" xlink:href="#DejaVuSans-46"/>
       <use x="131.494141" xlink:href="#DejaVuSans-53"/>
      </g>
     </g>
    </g>
    <g id="xtick_2">
     <g id="line2d_3">
      <path clip-path="url(#pd013a6d7e6)" d="M 95.656518 86.4 
L 95.656518 10.8 
" style="fill:none;stroke:#b2b2b2;stroke-dasharray:2.96,1.28;stroke-dashoffset:0;stroke-opacity:0.3;stroke-width:0.8;"/>
     </g>
     <g id="line2d_4">
      <g>
       <use style="fill:#2b2b2b;stroke:#2b2b2b;stroke-width:0.8;" x="95.656518" xlink:href="#m0578c1aa6c" y="86.4"/>
      </g>
     </g>
     <g id="text_2">
      <!-- 0 -->
      <g style="fill:#2b2b2b;" transform="translate(88.657768 110.116562)scale(0.22 -0.22)">
       <use xlink:href="#DejaVuSans-48"/>
      </g>
     </g>
    </g>
    <g id="xtick_3">
     <g id="line2d_5">
      <path clip-path="url(#pd013a6d7e6)" d="M 151.385764 86.4 
L 151.385764 10.8 
" style="fill:none;stroke:#b2b2b2;stroke-dasharray:2.96,1.28;stroke-dashoffset:0;stroke-opacity:0.3;stroke-width:0.8;"/>
     </g>
     <g id="line2d_6">
      <g>
       <use style="fill:#2b2b2b;stroke:#2b2b2b;stroke-width:0.8;" x="151.385764" xlink:href="#m0578c1aa6c" y="86.4"/>
      </g>
     </g>
     <g id="text_3">
      <!-- 0.5 -->
      <g style="fill:#2b2b2b;" transform="translate(133.892327 110.116562)scale(0.22 -0.22)">
       <use xlink:href="#DejaVuSans-48"/>
       <use x="63.623047" xlink:href="#DejaVuSans-46"/>
       <use x="95.410156" xlink:href="#DejaVuSans-53"/>
      </g>
     </g>
    </g>
    <g id="xtick_4">
     <g id="line2d_7">
      <path clip-path="url(#pd013a6d7e6)" d="M 207.11501 86.4 
L 207.11501 10.8 
" style="fill:none;stroke:#b2b2b2;stroke-dasharray:2.96,1.28;stroke-dashoffset:0;stroke-opacity:0.3;stroke-width:0.8;"/>
     </g>
     <g id="line2d_8">
      <g>
       <use style="fill:#2b2b2b;stroke:#2b2b2b;stroke-width:0.8;" x="207.11501" xlink:href="#m0578c1aa6c" y="86.4"/>
      </g>
     </g>
     <g id="text_4">
      <!-- 1 -->
      <defs>
       <path d="M 12.40625 8.296875 
L 28.515625 8.296875 
L 28.515625 63.921875 
L 10.984375 60.40625 
L 10.984375 69.390625 
L 28.421875 72.90625 
L 38.28125 72.90625 
L 38.28125 8.296875 
L 54.390625 8.296875 
L 54.390625 0 
L 12.40625 0 
z
" id="DejaVuSans-49"/>
      </defs>
      <g style="fill:#2b2b2b;" transform="translate(200.11626 110.116562)scale(0.22 -0.22)">
       <use xlink:href="#DejaVuSans-49"/>
      </g>
     </g>
    </g>
    <g id="xtick_5">
     <g id="line2d_9">
      <path clip-path="url(#pd013a6d7e6)" d="M 262.844256 86.4 
L 262.844256 10.8 
" style="fill:none;stroke:#b2b2b2;stroke-dasharray:2.96,1.28;stroke-dashoffset:0;stroke-opacity:0.3;stroke-width:0.8;"/>
     </g>
     <g id="line2d_10">
      <g>
       <use style="fill:#2b2b2b;stroke:#2b2b2b;stroke-width:0.8;" x="262.844256" xlink:href="#m0578c1aa6c" y="86.4"/>
      </g>
     </g>
     <g id="text_5">
      <!-- 1.5 -->
      <g style="fill:#2b2b2b;" transform="translate(245.350818 110.116562)scale(0.22 -0.22)">
       <use xlink:href="#DejaVuSans-49"/>
       <use x="63.623047" xlink:href="#DejaVuSans-46"/>
       <use x="95.410156" xlink:href="#DejaVuSans-53"/>
      </g>
     </g>
    </g>
   </g>
   <g id="matplotlib.axis_2">
    <g id="ytick_1">
     <g id="line2d_11">
      <path clip-path="url(#pd013a6d7e6)" d="M 28.8 86.4 
L 273.6 86.4 
" style="fill:none;stroke:#b2b2b2;stroke-dasharray:2.96,1.28;stroke-dashoffset:0;stroke-opacity:0.3;stroke-width:0.8;"/>
     </g>
     <g id="line2d_12">
      <defs>
       <path d="M 0 0 
L -3.5 0 
" id="m77e7ea4688" style="stroke:#2b2b2b;stroke-width:0.8;"/>
      </defs>
      <g>
       <use style="fill:#2b2b2b;stroke:#2b2b2b;stroke-width:0.8;" x="28.8" xlink:href="#m77e7ea4688" y="86.4"/>
      </g>
     </g>
    </g>
    <g id="ytick_2">
     <g id="line2d_13">
      <path clip-path="url(#pd013a6d7e6)" d="M 28.8 23.4 
L 273.6 23.4 
" style="fill:none;stroke:#b2b2b2;stroke-dasharray:2.96,1.28;stroke-dashoffset:0;stroke-opacity:0.3;stroke-width:0.8;"/>
     </g>
     <g id="line2d_14">
      <g>
       <use style="fill:#2b2b2b;stroke:#2b2b2b;stroke-width:0.8;" x="28.8" xlink:href="#m77e7ea4688" y="23.4"/>
      </g>
     </g>
    </g>
   </g>
   <g id="line2d_15">
    <path clip-path="url(#pd013a6d7e6)" d="M 39.927273 24.221492 
L 43.642556 32.248528 
L 47.357839 39.721019 
L 50.701594 45.972125 
L 54.045348 51.77405 
L 57.389103 57.126794 
L 60.732858 62.030356 
L 63.705084 66.011988 
L 66.677311 69.63871 
L 69.649537 72.910525 
L 72.621764 75.82743 
L 75.222462 78.088587 
L 77.82316 80.078016 
L 80.423858 81.795719 
L 83.024556 83.241694 
L 85.625254 84.415943 
L 88.225952 85.318464 
L 90.455122 85.875782 
L 92.684292 86.233463 
L 94.913462 86.391509 
L 97.142632 86.349918 
L 99.371801 86.108691 
L 101.600971 85.667828 
L 103.830141 85.027328 
L 106.430839 84.027761 
L 109.031537 82.756467 
L 111.632236 81.213447 
L 114.232934 79.398699 
L 116.833632 77.312224 
L 119.43433 74.954022 
L 122.035028 72.324094 
L 125.007255 68.985734 
L 127.979481 65.292466 
L 130.951707 61.244289 
L 133.923934 56.841203 
L 137.267689 51.463505 
L 140.611443 45.636626 
L 143.955198 39.360565 
L 147.298953 32.635323 
L 151.014236 24.636015 
L 154.729519 16.082161 
L 158.444802 6.973763 
L 161.525495 -1 
L 161.525495 -1 
" style="fill:none;stroke:#ff0000;stroke-linecap:square;stroke-width:1.2;"/>
   </g>
   <g id="line2d_16">
    <path clip-path="url(#pd013a6d7e6)" d="M 140.874505 -1 
L 144.698255 8.839806 
L 148.413538 17.837295 
L 152.128821 26.28024 
L 155.844104 34.168639 
L 159.559387 41.502494 
L 162.903142 47.628828 
L 166.246896 53.30598 
L 169.590651 58.533951 
L 172.562878 62.803946 
L 175.535104 66.719032 
L 178.50733 70.27921 
L 181.479557 73.484479 
L 184.451783 76.334839 
L 187.052481 78.537768 
L 189.65318 80.46897 
L 192.253878 82.128445 
L 194.854576 83.516194 
L 197.455274 84.632215 
L 200.055972 85.47651 
L 202.285142 85.983918 
L 204.514312 86.29169 
L 206.743482 86.399827 
L 208.972651 86.308327 
L 211.201821 86.017191 
L 213.430991 85.526419 
L 215.660161 84.83601 
L 218.260859 83.778216 
L 220.861557 82.448695 
L 223.462255 80.847447 
L 226.062953 78.974472 
L 228.663652 76.82977 
L 231.26435 74.413341 
L 234.236576 71.318981 
L 237.208803 67.869713 
L 240.181029 64.065535 
L 243.153255 59.906449 
L 246.125482 55.392455 
L 249.469237 49.889984 
L 252.812991 43.938332 
L 256.156746 37.537499 
L 259.500501 30.687485 
L 262.472727 24.221492 
L 262.472727 24.221492 
" style="fill:none;stroke:#ff0000;stroke-linecap:square;stroke-width:1.2;"/>
   </g>
   <g id="line2d_17">
    <path clip-path="url(#pd013a6d7e6)" d="M 39.927273 24.221492 
L 43.642556 32.248528 
L 47.357839 39.721019 
L 50.701594 45.972125 
L 54.045348 51.77405 
L 57.389103 57.126794 
L 60.732858 62.030356 
L 63.705084 66.011988 
L 66.677311 69.63871 
L 69.649537 72.910525 
L 72.621764 75.82743 
L 75.222462 78.088587 
L 77.82316 80.078016 
L 80.423858 81.795719 
L 83.024556 83.241694 
L 85.625254 84.415943 
L 88.225952 85.318464 
L 90.455122 85.875782 
L 92.684292 86.233463 
L 94.913462 86.391509 
L 97.142632 86.349918 
L 99.371801 86.108691 
L 101.600971 85.667828 
L 103.830141 85.027328 
L 106.430839 84.027761 
L 109.031537 82.756467 
L 111.632236 81.213447 
L 114.232934 79.398699 
L 116.833632 77.312224 
L 119.43433 74.954022 
L 122.035028 72.324094 
L 125.007255 68.985734 
L 127.979481 65.292466 
L 130.951707 61.244289 
L 133.923934 56.841203 
L 137.267689 51.463505 
L 140.611443 45.636626 
L 143.955198 39.360565 
L 147.298953 32.635323 
L 151.014236 24.636015 
L 151.385764 24.636015 
L 155.101047 32.635323 
L 158.81633 40.080087 
L 162.160085 46.306238 
L 165.50384 52.083209 
L 168.847594 57.410998 
L 172.191349 62.289606 
L 175.163576 66.249055 
L 178.135802 69.853597 
L 181.108029 73.103229 
L 184.080255 75.997953 
L 186.680953 78.2397 
L 189.281651 80.209721 
L 191.882349 81.908014 
L 194.483048 83.33458 
L 197.083746 84.48942 
L 199.684444 85.372532 
L 201.913614 85.913214 
L 204.142783 86.254259 
L 206.371953 86.395668 
L 208.601123 86.33744 
L 210.830293 86.079577 
L 213.059463 85.622078 
L 215.288633 84.964942 
L 217.889331 83.945966 
L 220.490029 82.655263 
L 223.090727 81.092833 
L 225.691425 79.258676 
L 228.292123 77.152792 
L 230.892821 74.775182 
L 233.49352 72.125844 
L 236.465746 68.765302 
L 239.437972 65.049852 
L 242.410199 60.979494 
L 245.382425 56.554226 
L 248.72618 51.151574 
L 252.069935 45.29974 
L 255.413689 38.998725 
L 258.757444 32.248528 
L 262.472727 24.221492 
L 262.472727 24.221492 
" style="fill:none;stroke:#ff0000;stroke-linecap:square;stroke-width:1.2;"/>
   </g>
   <g id="line2d_18">
    <path clip-path="url(#pd013a6d7e6)" d="M 39.927273 35.99997 
L 40.670329 36.496658 
L 42.156443 38.086801 
L 45.500197 42.473362 
L 59.246745 61.434433 
L 64.819669 68.159166 
L 67.420367 71.014837 
L 70.021065 73.648572 
L 75.59399 78.50671 
L 81.166915 82.249738 
L 86.739839 84.816971 
L 87.854424 85.199645 
L 89.712066 85.651356 
L 92.312764 86.165911 
L 97.51416 86.316628 
L 100.114858 85.939583 
L 101.229443 85.697066 
L 104.944726 84.63292 
L 107.173896 83.645135 
L 112.003764 80.980078 
L 114.232934 79.487633 
L 117.576688 76.833015 
L 119.805858 74.863173 
L 123.89267 70.808289 
L 131.694764 61.666651 
L 135.410047 56.794886 
L 148.785066 38.324051 
L 150.271179 36.676106 
L 151.014236 36.08214 
L 151.385764 36.08214 
L 152.128821 36.676106 
L 153.614934 38.324051 
L 156.215632 41.689818 
L 170.333708 61.197248 
L 174.420519 66.238284 
L 181.108029 73.475228 
L 185.937896 77.778917 
L 188.167066 79.487633 
L 191.510821 81.717177 
L 193.739991 82.9707 
L 197.083746 84.482723 
L 198.941387 85.135087 
L 200.055972 85.439706 
L 201.913614 85.82518 
L 203.028199 86.102123 
L 205.628897 86.336983 
L 207.486538 86.306268 
L 208.972651 86.297679 
L 212.687934 85.651356 
L 216.774746 84.399399 
L 219.375444 83.234377 
L 220.490029 82.657949 
L 226.062953 79.05761 
L 230.521293 75.360849 
L 232.750463 73.296654 
L 236.094218 69.793406 
L 239.437972 66.030446 
L 242.038671 62.854685 
L 251.698406 49.817158 
L 255.413689 44.554483 
L 258.757444 39.947735 
L 260.615086 37.667513 
L 261.729671 36.496658 
L 262.472727 35.99997 
L 262.472727 35.99997 
" style="fill:none;stroke:#004ba8;stroke-linecap:square;stroke-width:3;"/>
   </g>
   <g id="patch_3">
    <path d="M 28.8 86.4 
L 28.8 10.8 
" style="fill:none;stroke:#2b2b2b;stroke-linecap:square;stroke-linejoin:miter;stroke-width:0.8;"/>
   </g>
   <g id="patch_4">
    <path d="M 273.6 86.4 
L 273.6 10.8 
" style="fill:none;stroke:#2b2b2b;stroke-linecap:square;stroke-linejoin:miter;stroke-width:0.8;"/>
   </g>
   <g id="patch_5">
    <path d="M 28.8 86.4 
L 273.6 86.4 
" style="fill:none;stroke:#2b2b2b;stroke-linecap:square;stroke-linejoin:miter;stroke-width:0.8;"/>
   </g>
   <g id="patch_6">
    <path d="M 28.8 10.8 
L 273.6 10.8 
" style="fill:none;stroke:#2b2b2b;stroke-linecap:square;stroke-linejoin:miter;stroke-width:0.8;"/>
   </g>
  </g>
 </g>
 <defs>
  <clipPath id="pd013a6d7e6">
   <rect height="75.6" width="244.8" x="28.8" y="10.8"/>
  </clipPath>
 </defs>
</svg>
